<svg width="86" height="86" viewBox="0 0 86 86" fill="none" xmlns="http://www.w3.org/2000/svg">
<path d="M12.2335 49.3711L7.16669 54.438L24.9006 62.0382L32.5044 79.7757L37.5713 74.7089L35.0379 62.0382L46.9094 50.1666L59.8453 77.7726L64.6434 72.9746L60.3792 36.7005L70.5129 26.5632C71.1973 25.9021 71.7433 25.1113 72.1189 24.237C72.4945 23.3626 72.6922 22.4222 72.7005 21.4706C72.7088 20.519 72.5274 19.5753 72.1671 18.6946C71.8067 17.8138 71.2746 17.0136 70.6017 16.3407C69.9288 15.6678 69.1286 15.1357 68.2479 14.7753C67.3671 14.415 66.4234 14.2337 65.4718 14.2419C64.5202 14.2502 63.5798 14.4479 62.7055 14.8235C61.8311 15.1991 61.0403 15.7451 60.3792 16.4296L49.9768 26.832L13.7027 22.5642L9.16977 27.1007L36.5608 40.2516L24.9042 51.9081L12.2335 49.3711V49.3711Z" fill="#FFBA08"/>
</svg>
